<svg width="815" height="206" viewBox="0 0 815 206" fill="none" xmlns="http://www.w3.org/2000/svg">
<g clip-path="url(#clip0_13_476)">
<path d="M515.322 172.63H493.186V155.337C481.052 165.953 465.58 172.63 448.292 172.63C411.286 172.63 381.261 142.597 381.261 105.583C381.261 68.5679 411.286 38.5355 448.292 38.5355C485.297 38.5355 515.322 68.5679 515.322 105.583V172.63ZM448.598 15.1693C399.458 15.1693 359.728 55.2158 359.728 104.062C359.728 153.214 399.458 192.954 448.598 192.954C461.947 192.954 474.684 189.922 485.91 184.767L491.972 187.196L537.162 206V104.062C537.162 55.2158 497.432 15.1693 448.598 15.1693Z" fill="#00A1E3"/>
<path d="M78.5528 157.46C49.7422 157.46 26.3916 133.798 26.3916 104.98C26.3916 76.1525 49.7422 52.4901 78.5528 52.4901C107.679 52.4901 131.03 76.1525 131.03 104.98C131.03 133.798 107.679 157.46 78.5528 157.46ZM78.5528 26.3981C35.1888 26.3981 0 61.5956 0 104.98C0 148.365 35.1888 183.552 78.5528 183.552C98.8821 183.552 117.079 175.968 131.03 163.534V183.552H157.422V104.98C157.422 61.5956 122.233 26.3981 78.5528 26.3981Z" fill="#00A1E3"/>
<path d="M178.343 183.552H204.428V0H178.343V183.552Z" fill="#00A1E3"/>
<path d="M788.914 183.552H815V0H788.914V183.552Z" fill="#00A1E3"/>
<path d="M303.923 157.46C275.103 157.46 251.752 133.798 251.752 104.98C251.752 76.1525 275.103 52.4901 303.923 52.4901C318.476 52.4901 331.519 58.5538 341.225 67.9655L359.727 49.4582C345.47 35.1975 325.753 26.3981 303.923 26.3981C260.549 26.3981 225.36 61.5956 225.36 104.98C225.36 148.365 260.549 183.552 303.923 183.552C325.753 183.552 345.47 174.753 359.727 160.492L341.225 141.985C331.519 151.396 318.476 157.46 303.923 157.46Z" fill="#00A1E3"/>
<path d="M584.486 26.3981V0H558.4V183.552H584.486V52.49H610.562V26.3981" fill="#00A1E3"/>
<path d="M689.124 52.4901C713.689 52.4901 734.019 69.1802 740.081 91.9341H638.474C644.536 69.1802 664.855 52.4901 689.124 52.4901ZM728.855 138.953C719.455 150.182 705.198 157.46 689.124 157.46C664.855 157.46 644.536 140.78 638.474 118.026H766.769C767.381 113.77 767.983 109.523 767.983 104.98C767.983 61.5956 732.804 26.3981 689.124 26.3981C645.75 26.3981 610.562 61.5956 610.562 104.98C610.562 148.365 645.75 183.552 689.124 183.552C720.364 183.552 747.358 165.351 760.094 138.953" fill="#00A1E3"/>
<path d="M448.292 60.0747C423.124 60.0747 402.795 80.3991 402.795 105.583C402.795 130.766 423.124 151.09 448.292 151.09C473.469 151.09 493.788 130.766 493.788 105.583C493.788 80.3991 473.469 60.0747 448.292 60.0747Z" fill="#00A1E3"/>
</g>
<defs>
<clipPath id="clip0_13_476">
<rect width="815" height="206" fill="white"/>
</clipPath>
</defs>
</svg>
