<svg width="154" height="189" viewBox="0 0 154 189" fill="none" xmlns="http://www.w3.org/2000/svg">
<path d="M128.616 100.219C128.882 128.766 153.725 138.266 154 138.387C153.79 139.057 150.031 151.925 140.912 165.217C133.029 176.708 124.847 188.158 111.959 188.395C99.2951 188.628 95.223 180.905 80.7445 180.905C66.2705 180.905 61.7461 188.158 49.7583 188.628C37.318 189.097 27.8448 176.201 19.8963 164.752C3.65467 141.332 -8.75732 98.5718 7.90884 69.7083C16.1882 55.3745 30.9841 46.2978 47.0438 46.0651C59.2599 45.8326 70.7904 54.2623 78.2583 54.2623C85.7214 54.2623 99.7335 44.1249 114.464 45.6137C120.631 45.8697 137.94 48.0982 149.056 64.3256C148.16 64.8794 128.401 76.352 128.616 100.219ZM104.816 30.1192C111.42 22.1453 115.866 11.0449 114.653 0C105.133 0.38163 93.6209 6.32747 86.7923 14.297C80.6726 21.3544 75.3131 32.6502 76.7592 43.4765C87.3705 44.2953 98.2107 38.0982 104.816 30.1192Z" fill="black"/>
</svg>
