<svg width="1084" height="189" viewBox="0 0 1084 189" fill="none" xmlns="http://www.w3.org/2000/svg">
<g clip-path="url(#clip0_13_151)">
<path d="M143.35 86.9855C142.895 80.1542 141.075 73.3229 137.434 67.4024L106.489 13.2072C104.213 9.10843 102.393 4.55422 101.483 0L100.118 2.27711C92.3812 15.4843 92.3812 32.3349 100.118 45.5422L125.147 88.8072C132.883 102.014 132.883 118.865 125.147 132.072L123.782 134.349C122.872 129.795 121.051 125.241 118.776 121.142L96.0218 81.5205L81.4593 56.0169C79.1839 51.9181 77.3636 47.3639 76.4534 42.8096L75.0882 45.0867C67.3518 58.294 67.3518 74.6892 75.0882 88.3518L100.118 131.617C107.854 144.824 107.854 161.675 100.118 174.882L98.7523 177.159C97.8422 172.605 96.0218 168.051 93.7464 163.952L62.3459 109.757C58.2502 102.47 56.4299 94.2723 56.4299 86.0747C23.2091 94.7277 0 113.4 0 134.805C0 164.863 44.5978 189 99.6625 189C154.727 189 199.325 164.863 199.325 134.805C199.78 114.311 177.026 95.6386 143.35 86.9855ZM237.552 179.436C238.007 171.694 238.917 166.684 241.192 160.308C251.659 165.318 265.312 167.595 275.323 167.595C292.616 167.595 302.628 162.13 302.628 150.745C302.628 139.814 295.347 134.805 278.054 127.063L268.497 123.419C250.749 115.677 238.917 105.658 238.917 86.0747C238.917 64.6699 253.935 51.0072 283.97 51.0072C296.257 51.0072 307.634 52.8289 318.101 56.4723C317.646 63.759 316.28 69.6795 314.46 75.1446C304.448 71.5012 292.161 69.6795 283.515 69.6795C267.132 69.6795 259.851 76.0554 259.851 86.0747C259.851 95.6386 267.132 101.559 280.329 107.024L290.341 111.123C314.005 121.142 324.017 132.072 324.017 150.289C324.017 171.694 307.634 186.723 275.778 186.723C260.761 186.723 248.018 184.446 237.552 179.436ZM424.589 89.7181V183.535H405.476L404.566 172.149C399.105 180.347 391.369 185.812 378.171 185.812C353.597 185.812 336.759 167.595 336.759 136.171C336.759 103.381 354.507 84.253 389.093 84.253C402.746 84.7084 414.123 86.0747 424.589 89.7181ZM404.111 162.13V103.381C400.015 102.47 395.009 102.47 389.093 102.47C367.704 102.47 357.693 115.677 357.693 136.627C357.693 155.754 365.429 169.417 383.632 169.417C392.279 168.961 398.65 166.229 404.111 162.13ZM530.168 120.687V183.535H509.689V124.33C509.689 109.301 504.683 102.47 484.205 102.47C479.199 102.47 473.738 102.925 467.822 103.836V183.535H447.343V89.7181C460.541 86.5301 475.103 84.253 484.66 84.253C519.246 84.7084 530.168 97.9157 530.168 120.687ZM587.508 168.506C593.424 168.506 599.34 167.595 603.436 165.773C602.981 171.239 602.071 177.614 601.16 183.08C595.699 185.357 589.328 186.267 583.867 186.267C563.844 186.267 551.102 177.159 551.102 154.388V55.5614C557.473 53.2843 565.209 52.3735 571.58 52.3735V87.8964H604.346C603.891 94.2723 603.436 100.193 602.526 105.658H571.58V151.655C571.58 163.496 577.496 168.506 587.508 168.506ZM698.092 89.7181V183.535H678.979L678.069 172.149C672.608 180.347 664.872 185.812 651.674 185.812C627.1 185.812 610.262 167.595 610.262 136.171C610.262 103.381 628.01 84.253 662.596 84.253C676.249 84.7084 687.17 86.0747 698.092 89.7181ZM677.159 162.13V103.381C673.063 102.47 668.057 102.47 662.141 102.47C640.752 102.47 630.741 115.677 630.741 136.627C630.741 155.754 638.477 169.417 656.68 169.417C665.327 168.961 672.153 166.229 677.159 162.13ZM803.671 120.687V183.535H782.737V124.33C782.737 109.301 777.731 102.47 757.253 102.47C752.247 102.47 746.786 102.925 740.87 103.836V183.535H720.391V89.7181C733.589 86.5301 748.151 84.253 757.708 84.253C792.294 84.7084 803.671 97.9157 803.671 120.687ZM907.884 52.3735V183.535H888.771L887.861 171.694C882.4 180.347 874.663 185.812 861.011 185.812C836.437 185.812 819.599 167.595 819.599 136.171C819.599 103.381 837.347 84.253 871.933 84.253C877.394 84.253 882.4 84.7084 887.406 85.6193V54.6506C893.777 52.8289 901.058 52.3735 907.884 52.3735ZM887.406 162.13V104.292C881.945 103.381 876.484 102.47 871.023 102.47C850.544 102.47 840.987 115.222 840.987 136.627C840.987 155.754 848.724 169.417 866.927 169.417C875.118 168.961 881.945 166.229 887.406 162.13ZM1011.64 143.458H945.656C948.386 160.308 957.943 168.051 976.601 168.051C987.978 168.051 999.355 165.773 1009.37 160.764C1008.46 166.229 1007.55 173.516 1006.18 179.436C996.625 183.535 987.068 185.357 975.691 185.357C941.105 185.357 924.722 166.229 924.722 134.349C924.722 106.569 937.464 84.253 970.23 84.253C999.81 84.253 1012.55 103.381 1012.55 127.063C1012.55 133.439 1012.55 137.993 1011.64 143.458ZM945.656 126.152H992.074C992.074 110.667 983.883 101.559 969.775 101.559C954.757 102.014 947.021 110.212 945.656 126.152ZM1084 85.6193C1084 91.9952 1083.09 99.2819 1082.18 103.381C1077.17 102.925 1072.62 102.47 1066.71 102.47C1061.7 102.47 1056.7 102.925 1051.69 103.381V183.535H1031.21V89.7181C1039.86 86.5301 1054.87 84.253 1066.25 84.253C1072.17 84.7084 1079.45 84.7084 1084 85.6193Z" fill="#EA1D25"/>
</g>
<defs>
<clipPath id="clip0_13_151">
<rect width="1084" height="189" fill="white"/>
</clipPath>
</defs>
</svg>
