<svg width="1459" height="127" viewBox="0 0 1459 127" fill="none" xmlns="http://www.w3.org/2000/svg">
<path fill-rule="evenodd" clip-rule="evenodd" d="M751.107 0C757.624 0 762.953 5.32972 762.953 11.8465V110.116C762.953 116.633 757.624 121.962 751.107 121.962C744.59 121.962 739.26 116.633 739.26 110.116V11.8465C739.256 5.33371 744.59 0 751.107 0Z" fill="#EC1C24"/>
<path d="M907.095 3.92357C913.604 5.00704 918.002 8.88685 916.918 15.3956C915.835 21.9044 909.677 26.302 903.164 25.2185C879.236 21.1436 858.013 19.3272 841.119 22.7728C826.034 25.8479 814.415 32.2691 807.543 44.7211C803.966 51.202 801.509 55.9183 801.102 61.2201C800.752 65.789 799.728 72.1505 803.329 77.1974L805.619 75.5044C807.83 78.6034 808.46 83.2281 811.929 85.9169C815.681 88.8248 820.003 91.4299 824.748 93.7004C850.639 106.085 889.601 109.582 919.292 98.4326C925.467 96.1103 932.358 99.2293 934.684 105.403C937.01 111.578 935.031 116.19 928.857 118.513C893.217 131.897 847.823 128.375 816.737 113.51C810.404 110.482 804.636 106.997 799.613 103.105C794.311 98.9943 789.758 94.3935 786.157 89.3465L786.145 89.3306C778.951 79.2408 776.473 69.4497 777.242 59.4436C777.959 50.1663 781.496 41.2954 786.583 32.0739C798.927 13.9417 814.964 7.28151 836.917 2.80422C857.057 -1.30261 880.55 -0.593552 907.095 3.92357Z" fill="#EC1C24"/>
<path fill-rule="evenodd" clip-rule="evenodd" d="M861.9 53.8828H788.634V71.3896H861.9C866.839 71.3896 870.874 67.4501 870.874 62.6342C870.874 57.8223 866.839 53.8828 861.9 53.8828Z" fill="#EC1C24"/>
<path fill-rule="evenodd" clip-rule="evenodd" d="M973.111 35.9299V110.12C973.111 116.637 967.781 121.966 961.265 121.966C954.748 121.966 950.227 116.637 950.227 110.12V43.3429C946.972 15.1566 975.274 -16.981 1007.49 13.0933C1007.89 13.4677 1008.26 13.8661 1008.59 14.2763L1008.61 14.2644L1008.62 14.2763C1008.85 14.5512 1009.05 14.83 1009.25 15.1168C1026.75 38.053 1039.33 62.9171 1055.33 86.8132L1055.35 86.8411L1055.42 86.9606L1055.42 86.9566L1055.44 86.9845L1055.59 87.2474C1056.57 88.8727 1057.4 90.3863 1058.28 91.9796C1067.75 105.997 1081.24 105.758 1081.68 88.3428C1082.01 73.0986 1081.99 31.1698 1080.69 13.4797C1080.21 6.98283 1086.02 1.63319 1092.53 1.63319C1099.05 1.63319 1102.76 6.9669 1102.76 13.4797V75.7116C1103.98 95.1065 1098.23 111.195 1093.52 115.824C1087.03 123.07 1078.65 125.145 1069.67 124.946C1068.04 124.91 1066.47 124.739 1064.98 124.424C1046.86 120.612 1011.2 57.2846 1004.99 48.3022C1002.52 44.7371 1000.16 41.3791 997.947 38.3239C996.055 35.7108 993.988 32.9304 991.733 29.9708C981.277 20.813 973.135 28.2181 973.111 35.9299ZM1055.59 87.2394C1056.54 88.9443 1057.03 90.7925 1057.1 92.6249L1055.59 87.2394Z" fill="#EC1C24"/>
<path d="M563.91 7.90296C561.329 1.83233 554.31 -0.995819 548.239 1.58938C542.169 4.17059 539.34 11.1893 541.926 17.2599C553.955 45.3306 572.191 74.1262 592.04 96.8512C605.181 111.896 617.378 123.022 630.073 124.536C643.115 126.089 654.264 118.186 670.038 104.133C684.354 91.3821 693.213 77.3408 702.726 61.3874C712.007 45.8205 719.34 30.3651 724.833 18.0964C727.518 12.0775 724.817 5.01906 718.798 2.3303C712.78 -0.354481 705.721 2.34623 703.032 8.36508C697.814 20.0204 690.389 34.6632 681.757 49.1347C674.707 60.9613 648.337 102.779 631.519 100.775C610.694 98.2933 574.924 33.6115 563.91 7.90296Z" fill="#EC1C24"/>
<path fill-rule="evenodd" clip-rule="evenodd" d="M518.507 0C525.023 0 530.353 5.32972 530.353 11.8465V110.116C530.353 116.633 525.023 121.962 518.507 121.962C511.99 121.962 506.66 116.633 506.66 110.116V11.8465C506.656 5.33371 511.99 0 518.507 0Z" fill="#EC1C24"/>
<path d="M15.2419 28.2938C8.88847 30.1022 2.26814 27.1904 0.459695 20.833C-1.34875 14.4795 2.33984 7.85921 8.69329 6.05076C63.6078 -4.37766 96.7214 3.41381 123.717 16.2362C134.79 23.3146 145.545 31.4606 150.847 40.925C156.428 50.8874 158.794 60.1169 157.802 70.6608C156.28 86.8133 146.979 101.938 129.373 112.179C120.741 117.198 111.543 120.421 102.087 122.532C92.981 124.563 83.8831 125.531 74.9325 126.093C65.7907 126.671 58.059 126.882 50.3352 125.914C42.1893 124.894 34.2823 122.628 25.2521 118.266C21.7308 116.569 17.5204 113.366 16.8193 109.805L16.4767 110.737C16.4767 88.5022 16.4767 65.335 16.4767 43.1C20.5238 31.4048 36.9353 34.8823 37.0508 43.1L38.6083 98.2177C36.043 109.463 66.7586 105.503 73.4387 105.081C81.4771 104.575 89.4637 103.751 96.9445 102.077C104.079 100.484 110.99 98.0742 117.399 94.3458C127.784 88.303 133.221 77.0779 134.037 68.4102C134.571 62.7618 133.189 56.7827 129.982 51.0587C126.497 44.8367 120.936 38.9891 113.388 34.1653C92.6982 22.494 62.7354 15.6467 15.2419 28.2938Z" fill="#EC1C24"/>
<path d="M332.366 7.90296C329.784 1.83233 322.766 -0.995819 316.695 1.58938C310.624 4.17059 307.796 11.1893 310.377 17.2599C322.407 45.3306 340.643 74.1262 360.492 96.8512C373.633 111.896 385.83 123.022 398.525 124.536C411.567 126.089 422.716 118.186 438.49 104.133C452.806 91.3821 461.665 77.3408 471.177 61.3874C480.459 45.8205 487.792 30.3651 493.285 18.0964C495.97 12.0775 493.269 5.01906 487.25 2.3303C481.231 -0.354481 474.173 2.34623 471.484 8.36508C466.266 20.0204 458.841 34.6632 450.209 49.1347C443.159 60.9613 416.789 102.779 399.971 100.775C379.15 98.2933 343.383 33.6115 332.366 7.90296Z" fill="#EC1C24"/>
<path d="M315.842 117.453C318.423 123.524 325.442 126.352 331.513 123.771C337.583 121.19 340.412 114.171 337.826 108.1C325.797 80.0296 307.561 51.2339 287.712 28.5089C274.571 13.4637 262.374 2.33824 249.679 0.824567C236.637 -0.72894 225.488 7.17401 209.714 21.2273C195.398 33.978 186.539 48.0193 177.026 63.9727C167.745 79.5396 160.412 94.9951 154.919 107.264C152.234 113.283 154.935 120.341 160.954 123.03C166.972 125.715 174.031 123.014 176.72 116.995C181.938 105.34 189.363 90.6969 197.995 76.2254C205.045 64.3988 231.415 22.5816 248.233 24.5853C269.054 27.0629 304.824 91.7486 315.842 117.453Z" fill="#EC1C24"/>
<path d="M1134.84 28.2938C1128.49 30.1022 1121.87 27.1904 1120.06 20.833C1118.25 14.4795 1121.94 7.85921 1128.29 6.05076C1183.21 -4.37766 1216.32 3.41381 1243.32 16.2362C1254.39 23.3146 1265.15 31.4606 1270.45 40.925C1276.03 50.8874 1278.39 60.1169 1277.4 70.6608C1275.88 86.8133 1266.58 101.938 1248.98 112.179C1240.35 117.198 1231.15 120.421 1221.69 122.532C1212.59 124.563 1203.49 125.531 1194.54 126.093C1185.4 126.671 1177.67 126.882 1169.94 125.914C1161.79 124.894 1153.89 122.628 1144.86 118.266C1141.34 116.569 1137.12 113.366 1136.42 109.805L1136.08 110.737C1136.08 88.5022 1136.08 65.335 1136.08 43.1C1140.13 31.4048 1156.54 34.8823 1156.66 43.1L1158.21 98.2177C1155.65 109.463 1186.36 105.503 1193.04 105.081C1201.08 104.575 1209.07 103.751 1216.55 102.077C1223.68 100.484 1230.59 98.0742 1237 94.3458C1247.39 88.303 1252.83 77.0779 1253.64 68.4102C1254.18 62.7618 1252.79 56.7827 1249.59 51.0587C1246.1 44.8367 1240.54 38.9891 1232.99 34.1653C1212.3 22.494 1182.34 15.6467 1134.84 28.2938Z" fill="#EC1C24"/>
<path d="M1296.14 117.453C1293.56 123.524 1286.54 126.352 1280.47 123.771C1274.4 121.19 1271.58 114.171 1274.16 108.1C1286.19 80.0296 1304.42 51.2339 1324.27 28.5089C1337.41 13.4637 1349.61 2.33824 1362.3 0.824567C1375.35 -0.72894 1386.49 7.17401 1402.27 21.2273C1416.58 33.978 1425.44 48.0193 1434.96 63.9727C1444.24 79.5396 1451.57 94.9951 1457.06 107.264C1459.75 113.283 1457.05 120.341 1451.03 123.03C1445.01 125.715 1437.95 123.014 1435.26 116.995C1430.04 105.34 1422.62 90.6969 1413.99 76.2254C1406.94 64.3988 1380.57 22.5816 1363.75 24.5853C1342.93 27.0629 1307.16 91.7486 1296.14 117.453Z" fill="#EC1C24"/>
</svg>
