<svg width="1022" height="461" viewBox="0 0 1022 461" fill="none" xmlns="http://www.w3.org/2000/svg">
<path fill-rule="evenodd" clip-rule="evenodd" d="M381.203 311.205C364.745 311.205 350.531 305.269 338.955 293.563C327.296 281.874 321.38 267.623 321.38 251.217C321.38 246.877 322.905 243.146 325.914 240.129C329.013 237.02 332.778 235.444 337.108 235.444C341.343 235.444 345.063 237.02 348.164 240.128C351.173 243.146 352.7 246.877 352.7 251.217C352.7 259.144 355.44 265.745 361.078 271.396C366.714 277.051 373.297 279.8 381.203 279.8C389.106 279.8 395.688 277.051 401.327 271.396C406.872 265.837 409.568 259.281 409.568 251.354V112.643C409.568 108.282 411.152 104.539 414.275 101.519C417.217 98.4583 420.949 96.8698 425.296 96.8698C429.643 96.8698 433.375 98.4583 436.389 101.591C439.44 104.54 441.025 108.283 441.025 112.643V251.354C441.025 267.765 435.106 281.973 423.433 293.581C411.773 305.273 397.562 311.205 381.203 311.205Z" fill="#00E871"/>
<path fill-rule="evenodd" clip-rule="evenodd" d="M491.288 215.196H584.994C581.936 206.028 576.481 198.279 568.742 192.131C559.785 185.138 549.506 181.585 538.21 181.585C526.819 181.585 516.495 185.138 507.523 192.144C499.798 198.28 494.346 206.025 491.288 215.196ZM538.21 311.205C516.022 311.205 496.777 303.283 481.011 287.661L481 287.649C473.633 280.263 467.84 271.717 463.781 262.248C459.528 252.295 457.372 241.772 457.372 230.967C457.372 208.802 465.321 189.592 481 173.872C488.466 166.477 497.129 160.67 506.759 156.599C516.668 152.342 527.255 150.179 538.21 150.179C560.305 150.179 579.506 158.149 595.278 173.866C602.65 181.26 608.445 189.905 612.509 199.567C616.754 209.499 618.91 220.069 618.91 230.967C618.91 235.308 617.386 239.039 614.377 242.054C611.279 245.161 607.513 246.739 603.183 246.739H491.31C494.376 255.72 499.862 263.321 507.652 269.371C516.538 276.292 526.817 279.8 538.21 279.8C556.329 279.8 570.457 274.231 580.201 263.251C582.968 260.031 586.594 258.265 590.95 258.039C595.256 257.821 599.062 259.114 602.273 261.888C605.536 264.822 607.283 268.493 607.506 272.835C607.729 277.078 606.379 280.867 603.494 284.094C587.638 302.078 565.668 311.205 538.21 311.205Z" fill="#00E871"/>
<path fill-rule="evenodd" clip-rule="evenodd" d="M652.36 311.205C648.05 311.205 644.296 309.686 641.201 306.693C638.158 303.642 636.633 299.912 636.633 295.57V113.332C636.633 108.989 638.158 105.259 641.165 102.244C644.265 99.1342 648.031 97.5588 652.36 97.5588C656.594 97.5588 660.315 99.1342 663.416 102.243C666.425 105.26 667.951 108.991 667.951 113.332V295.57C667.951 299.911 666.425 303.641 663.416 306.657C660.284 309.686 656.576 311.205 652.36 311.205Z" fill="#00E871"/>
<path fill-rule="evenodd" clip-rule="evenodd" d="M774.339 181.585C761.084 181.585 750.059 186.264 740.634 195.891C731.328 205.482 726.606 217.194 726.606 230.691C726.606 244.098 731.328 255.764 740.643 265.365C750.059 274.982 761.083 279.662 774.339 279.662C787.594 279.662 798.62 274.982 808.044 265.355C817.257 255.771 821.937 244.103 821.937 230.691C821.937 217.191 817.258 205.476 808.027 195.873C798.619 186.264 787.593 181.585 774.339 181.585ZM711.014 363.686C706.704 363.686 702.95 362.17 699.857 359.176C696.812 356.123 695.286 352.392 695.286 348.053V165.813C695.286 161.474 696.812 157.743 699.821 154.725C702.919 151.618 706.685 150.04 711.014 150.04C715.25 150.04 718.969 151.617 722.071 154.725C725.08 157.743 726.606 161.474 726.606 165.813V166.38C740.498 155.533 756.527 150.04 774.339 150.04C795.993 150.04 814.786 158.019 830.194 173.752C845.496 189.379 853.255 208.537 853.255 230.691C853.255 252.755 845.496 271.866 830.194 287.493C814.783 303.137 795.992 311.067 774.339 311.067C756.525 311.067 740.496 305.575 726.606 294.728V348.053C726.606 352.392 725.08 356.123 722.071 359.14C718.939 362.17 715.23 363.686 711.014 363.686Z" fill="#00E871"/>
<path fill-rule="evenodd" clip-rule="evenodd" d="M892.336 136.541C889.021 136.541 885.807 135.678 882.784 133.975C879.729 132.257 877.309 129.832 875.594 126.765C873.897 123.734 873.037 120.511 873.037 117.188C873.037 113.874 873.894 110.634 875.583 107.56C877.31 104.423 879.773 101.982 882.905 100.304C889.023 97.0234 895.687 97.0277 901.716 100.313C904.783 101.986 907.233 104.413 909 107.527C910.748 110.611 911.634 113.861 911.634 117.188C911.634 120.51 910.774 123.733 909.077 126.765C907.359 129.833 904.94 132.259 901.886 133.977C898.863 135.678 895.65 136.541 892.336 136.541Z" fill="#00E871"/>
<path fill-rule="evenodd" clip-rule="evenodd" d="M892.335 311.205C888.007 311.205 884.287 309.675 881.278 306.657C878.191 303.674 876.607 299.931 876.607 295.57V165.951C876.607 161.59 878.192 157.847 881.316 154.827C884.256 151.768 887.988 150.179 892.335 150.179C896.683 150.179 900.415 151.768 903.427 154.9C906.479 157.848 908.063 161.591 908.063 165.951V295.57C908.063 299.929 906.479 303.672 903.356 306.693C900.383 309.675 896.664 311.205 892.335 311.205Z" fill="#00E871"/>
<path fill-rule="evenodd" clip-rule="evenodd" d="M969.671 311.205C965.343 311.205 961.623 309.675 958.614 306.657C955.527 303.674 953.942 299.93 953.942 295.57V181.721H936.841C932.509 181.721 928.741 180.145 925.646 177.036C922.639 174.021 921.113 170.291 921.113 165.95C921.113 161.611 922.639 157.88 925.647 154.864C928.745 151.755 932.511 150.179 936.841 150.179H953.942V113.332C953.942 108.971 955.527 105.228 958.651 102.208C961.592 99.1473 965.323 97.5588 969.671 97.5588C974.018 97.5588 977.751 99.1473 980.763 102.279C983.736 105.26 985.261 108.991 985.261 113.332V150.179H1002.5C1006.85 150.179 1010.58 151.767 1013.59 154.899C1016.57 157.88 1018.09 161.611 1018.09 165.95C1018.09 170.291 1016.57 174.021 1013.56 177.037C1010.58 180.133 1006.85 181.721 1002.5 181.721H985.261V295.57C985.261 299.911 983.736 303.642 980.727 306.657C977.719 309.675 974 311.205 969.671 311.205Z" fill="#00E871"/>
<path fill-rule="evenodd" clip-rule="evenodd" d="M76.0442 81.4983C68.7195 84.8116 62.5821 91.8177 60.8143 99.7504C59.0192 107.809 60.5436 116.479 64.9664 123.466C73 136.153 87.2591 142.661 100.123 149.256C124.545 161.773 149.378 173.886 171.859 189.77C173.31 190.797 174.749 191.842 176.177 192.902C176.189 206.27 175.344 219.627 173.642 232.904C169.871 259.733 162.821 285.866 154.656 311.654C152.69 311.806 150.725 311.962 148.762 312.12C136.082 313.155 123.435 314.369 110.831 316.112C88.5703 319.192 66.3798 324.686 46.4367 335.358C26.9382 345.793 10.1405 362.157 2.97125 383.498C-0.430708 393.63 -1.00368 405.055 1.7318 415.414C4.30093 425.139 9.96651 434.162 17.1216 441.151C24.6692 448.524 34.0564 454.031 44.1589 457.025C55.8326 460.484 68.3445 460.071 80.054 457.021C99.2665 452.016 116.83 440.482 129.833 425.545C142.369 411.143 151.099 394.464 158.317 376.89C161.762 368.501 164.693 359.925 167.618 351.344C169.465 345.923 171.302 340.5 173.109 335.068C182.276 334.268 191.44 333.152 200.248 330.786C213.577 327.204 225.449 319.941 233.916 308.952C237.968 303.693 240.897 298.207 243.361 292.032C245.607 286.399 246.675 280.565 247.409 274.566C248.818 263.052 247.03 250.834 243.324 239.898C239.378 228.256 233.482 217.37 226.055 207.6C218.577 197.765 210.222 188.834 200.775 180.897C200.658 178.085 200.504 175.276 200.315 172.47C200.263 171.681 200.161 170.909 200.012 170.153C199.359 165.189 198.708 160.223 198.056 155.258C197.008 147.263 196.062 139.312 193.205 131.716C189.341 121.441 183.662 112.105 175.808 104.382C168.591 97.2864 159.934 91.6225 150.669 87.6169C145.194 85.251 139.659 83.1762 133.889 81.6553C127.865 80.0679 121.747 79.0878 115.578 78.2722C110.192 77.5603 104.706 77.0304 99.2567 77.0304C91.3047 77.0304 83.4287 78.1588 76.0442 81.4983ZM165.867 156.277C154.691 149.565 143.174 143.445 131.593 137.47C120.122 131.552 108.311 126.087 97.1616 119.571C95.1089 118.371 93.1084 117.09 91.1807 115.702C89.5684 114.358 88.0593 112.914 86.6828 111.329C86.2175 110.621 85.7902 109.891 85.401 109.138C85.189 108.497 85.0063 107.848 84.8541 107.19C84.8396 106.798 84.8356 106.404 84.8443 106.011C84.9009 105.785 84.9802 105.56 85.0465 105.336C85.1031 105.238 85.1737 105.144 85.2335 105.046C85.4314 104.841 85.6456 104.647 85.8554 104.451C86.3838 104.117 86.9242 103.804 87.4787 103.517C89.1661 102.929 90.8959 102.498 92.655 102.18C99.5339 101.494 106.586 102.031 113.446 102.883C122.355 104.174 131.133 106.33 139.489 109.7C144.41 111.919 149.114 114.579 153.481 117.756C156.89 120.518 160.01 123.599 162.79 126.994C165.271 130.414 167.387 134.068 169.118 137.926C170.978 142.812 172.23 147.892 172.96 153.074C173.318 155.838 173.683 158.601 174.048 161.363C171.347 159.627 168.621 157.93 165.867 156.277ZM194.848 256.123C197.418 242.541 199.271 228.808 200.248 215.015C201.955 216.944 203.607 218.923 205.209 220.949C210.164 227.596 214.474 234.703 217.833 242.295C220.041 247.888 221.685 253.674 222.625 259.618C223.105 264.134 223.173 268.684 222.74 273.204C222.097 277.211 221.05 281.126 219.596 284.914C218.165 288.014 216.461 290.963 214.469 293.735C212.582 295.997 210.512 298.078 208.257 299.969C205.721 301.783 203.034 303.338 200.205 304.649C194.358 306.884 188.232 308.193 182.046 309.103C181.831 309.129 181.615 309.157 181.397 309.185C186.724 291.724 191.455 274.068 194.848 256.123ZM56.5045 434.343C53.1993 433.76 49.9756 432.863 46.8411 431.664C43.7023 430.205 40.7211 428.459 37.9117 426.432C35.3991 424.344 33.0898 422.043 31.0056 419.526C29.4063 417.278 28.007 414.907 26.8328 412.409C26.0413 410.253 25.4379 408.05 25.0247 405.792C24.7801 403.087 24.7866 400.38 25.0301 397.674C25.6096 394.316 26.5283 391.042 27.746 387.86C29.5552 383.917 31.7721 380.2 34.3216 376.696C37.8497 372.338 41.8399 368.402 46.2084 364.893C52.9144 359.951 60.213 355.911 67.8324 352.563C83.4679 346.188 100.036 342.569 116.713 340.209C126.529 338.933 136.384 338.028 146.246 337.21C145.249 340.156 144.249 343.101 143.246 346.041C140.397 354.391 137.49 362.712 134.13 370.87C129.058 382.655 123.013 394.05 115.298 404.317C110.672 410.092 105.502 415.395 99.7427 420.038C94.499 423.928 88.866 427.224 82.908 429.884C77.9784 431.844 72.8989 433.359 67.6704 434.257C65.647 434.475 63.6215 434.589 61.596 434.589C59.8988 434.589 58.2016 434.508 56.5045 434.343Z" fill="url(#paint0_linear_13_461)"/>
<path fill-rule="evenodd" clip-rule="evenodd" d="M118.126 1.08917C101.73 1.08917 88.4399 14.4177 88.4399 30.8577C88.4399 47.2989 101.73 60.6274 118.126 60.6274C134.521 60.6274 147.811 47.2989 147.811 30.8577C147.811 14.4177 134.521 1.08917 118.126 1.08917Z" fill="url(#paint1_linear_13_461)"/>
<defs>
<linearGradient id="paint0_linear_13_461" x1="86.9521" y1="273.95" x2="180.274" y2="261.912" gradientUnits="userSpaceOnUse">
<stop stop-color="#CFFF5B"/>
<stop offset="1" stop-color="#83E578"/>
</linearGradient>
<linearGradient id="paint1_linear_13_461" x1="93.8731" y1="31.9854" x2="148.262" y2="29.4721" gradientUnits="userSpaceOnUse">
<stop stop-color="#CFFF5B"/>
<stop offset="1" stop-color="#A5E37D"/>
</linearGradient>
</defs>
</svg>
