<svg width="948" height="268" viewBox="0 0 948 268" fill="none" xmlns="http://www.w3.org/2000/svg">
<path d="M159.997 90.7058C159.938 90.7058 159.879 90.7058 159.79 90.7058C152.103 90.7058 144.595 92.843 138.036 96.7316C144.387 100.086 138.036 96.7316 138.036 96.7316C135.246 98.3939 132.664 100.383 130.29 102.639C146.435 105.132 158.81 119.113 158.81 135.974C158.81 154.585 143.704 169.694 125.096 169.694C106.488 169.694 91.3825 154.585 91.3825 135.974C91.3825 119.024 103.907 104.984 120.2 102.609C117.825 100.294 115.243 98.2752 112.454 96.5832C105.895 92.6055 98.3271 90.409 90.6109 90.3793C90.5516 90.3793 90.4625 90.3793 90.4032 90.3793C66.9875 90.3793 47.9048 109.377 47.7861 132.797C47.7564 137.161 48.2016 141.524 49.0919 145.799C50.6648 152.507 53.128 159.008 56.4223 165.064C59.4791 170.526 63.4559 176.017 68.2043 181.33C83.9631 198.992 105.598 211.935 119.932 220.483L121.298 221.285C122.485 221.997 123.612 222.68 124.681 223.333C126.165 222.443 127.767 221.522 129.459 220.513C144.238 211.875 166.556 198.785 182.552 180.707C185.995 176.819 189.022 172.811 191.574 168.804C196.174 161.353 199.469 153.22 201.368 144.641C202.05 140.96 202.407 137.22 202.436 133.48C202.496 110 183.472 90.7948 159.997 90.7058Z" fill="#006098"/>
<path d="M90.2857 80.1091C90.3747 80.1091 90.4638 80.1091 90.5528 80.1091C103.285 80.1685 115.63 84.9179 125.187 93.3184C134.802 85.0069 147.207 80.3763 159.969 80.4356C174.066 80.495 187.302 86.0756 197.244 96.1087C200.508 99.4036 203.298 103.084 205.554 107.003C196.294 71.1446 163.738 44.6667 125.009 44.6667C86.487 44.6667 54.0493 70.8774 44.6118 106.439C53.7822 90.7062 70.8172 80.1091 90.2857 80.1091Z" fill="#4597CB"/>
<path d="M293.826 153.802C291.239 158.986 287.623 163.224 283.008 166.548C278.364 169.841 272.573 171.518 265.635 171.518C261.05 171.518 256.817 170.694 252.995 169.078C249.174 167.432 245.852 165.175 243.089 162.248C240.297 159.321 238.121 155.876 236.564 151.881C235.006 147.917 234.212 143.526 234.212 138.77C234.212 134.013 235.006 129.622 236.564 125.597C238.151 121.573 240.326 118.127 243.089 115.23C245.882 112.334 249.174 110.077 252.995 108.461C256.817 106.845 261.05 106.022 265.635 106.022C272.485 106.022 278.246 107.638 282.949 110.931C287.623 114.194 291.062 118.432 293.238 123.616C288.975 127.488 284.096 129.47 278.716 129.897C277.335 127.061 275.6 124.896 273.455 123.433C271.309 121.969 268.634 121.237 265.4 121.237C263.313 121.237 261.314 121.664 259.462 122.487C257.611 123.311 255.964 124.5 254.553 125.994C253.142 127.488 252.025 129.348 251.232 131.513C250.438 133.678 250.027 136.117 250.027 138.8C250.027 141.484 250.438 143.892 251.232 146.088C252.025 148.253 253.142 150.113 254.553 151.607C255.964 153.101 257.611 154.29 259.462 155.113C261.314 155.936 263.284 156.363 265.4 156.363C268.693 156.363 271.515 155.601 273.807 154.046C276.1 152.491 277.952 150.265 279.304 147.338C285.154 147.124 290.092 149.045 293.826 153.802Z" fill="#4597CB"/>
<path d="M312.315 99.7102C310.934 99.7102 309.64 99.4358 308.376 98.8869C307.112 98.3381 306.024 97.5758 305.113 96.6305C304.173 95.6548 303.467 94.5571 302.938 93.307C302.409 92.0568 302.144 90.6847 302.144 89.1601C302.144 87.6356 302.409 86.2634 302.938 85.0133C303.467 83.7631 304.202 82.6655 305.113 81.6897C306.054 80.714 307.142 79.9822 308.376 79.4333C309.64 78.8845 310.934 78.6101 312.315 78.6101C315.137 78.6101 317.547 79.6468 319.576 81.6897C321.604 83.7327 322.603 86.233 322.603 89.1601C322.603 92.0873 321.604 94.5876 319.576 96.6305C317.577 98.704 315.137 99.7102 312.315 99.7102ZM304.467 169.505V108.004C310.698 106.54 315.843 106.784 320.311 108.004V169.505H304.467Z" fill="#4597CB"/>
<path d="M390.36 154.686C387.626 159.717 383.922 163.773 379.278 166.852C374.633 169.932 368.96 171.487 362.287 171.487C357.76 171.487 353.586 170.664 349.765 169.048C345.943 167.401 342.592 165.145 339.77 162.218C336.948 159.291 334.744 155.845 333.186 151.851C331.628 147.887 330.834 143.496 330.834 138.739C330.834 134.318 331.598 130.11 333.127 126.116C334.656 122.152 336.801 118.676 339.535 115.688C342.269 112.73 345.532 110.352 349.265 108.583C353.028 106.815 357.143 105.961 361.67 105.961C366.432 105.961 370.665 106.784 374.369 108.4C378.072 110.047 381.188 112.303 383.687 115.169C386.185 118.066 388.096 121.451 389.36 125.384C390.654 129.317 391.3 133.586 391.3 138.19C391.3 138.77 391.3 139.288 391.3 139.684C391.212 140.172 391.183 140.66 391.183 141.057C391.094 141.483 391.065 141.941 391.065 142.429H346.414C346.737 144.929 347.413 147.094 348.413 148.893C349.412 150.692 350.676 152.186 352.175 153.406C353.674 154.625 355.291 155.51 357.084 156.028C358.848 156.577 360.67 156.851 362.522 156.851C366.138 156.851 369.166 155.997 371.547 154.29C373.928 152.582 375.809 150.417 377.161 147.826C382.687 148.497 387.214 150.57 390.36 154.686ZM375.956 130.842C375.868 129.744 375.544 128.555 374.927 127.213C374.31 125.872 373.428 124.622 372.252 123.463C371.076 122.304 369.636 121.329 367.902 120.566C366.167 119.804 364.08 119.438 361.67 119.438C358.289 119.438 355.291 120.444 352.704 122.457C350.117 124.469 348.295 127.274 347.266 130.872H375.956V130.842Z" fill="#4597CB"/>
<path d="M416.374 116.023H417.344C419.196 112.943 421.695 110.474 424.84 108.675C427.986 106.876 431.572 105.991 435.599 105.991C439.303 105.991 442.566 106.632 445.388 107.882C448.21 109.132 450.532 110.901 452.354 113.218C454.177 115.535 455.529 118.279 456.47 121.512C457.41 124.744 457.851 128.311 457.851 132.245V169.505H442.007V134.257C442.007 129.836 441.066 126.543 439.156 124.408C437.274 122.274 434.511 121.207 430.866 121.207C428.691 121.207 426.78 121.694 425.134 122.64C423.488 123.615 422.077 124.896 420.901 126.543C419.726 128.189 418.844 130.11 418.226 132.306C417.609 134.531 417.315 136.879 417.315 139.41V169.536H401.471V108.034C406.145 105.199 411.142 105.504 416.345 108.034L416.374 116.023Z" fill="#4597CB"/>
<path d="M528.513 153.275C525.926 158.459 522.311 162.697 517.695 166.021C513.051 169.314 507.26 170.991 500.323 170.991C495.737 170.991 491.504 170.168 487.683 168.552C483.862 166.905 480.54 164.649 477.777 161.721C474.984 158.794 472.809 155.349 471.251 151.354C469.693 147.391 468.899 143 468.899 138.243C468.899 133.486 469.693 129.096 471.251 125.071C472.838 121.046 475.014 117.6 477.777 114.704C480.569 111.807 483.862 109.551 487.683 107.935C491.504 106.318 495.737 105.495 500.323 105.495C507.172 105.495 512.933 107.111 517.637 110.404C522.311 113.667 525.75 117.905 527.925 123.089C523.398 126.931 518.577 129.065 513.404 129.37C512.022 126.534 510.288 124.369 508.142 122.906C505.996 121.442 503.321 120.71 500.088 120.71C498.001 120.71 496.002 121.137 494.15 121.961C492.298 122.784 490.652 123.973 489.241 125.467C487.83 126.961 486.713 128.821 485.919 130.986C485.126 133.151 484.714 135.59 484.714 138.274C484.714 140.957 485.126 143.366 485.919 145.561C486.713 147.726 487.83 149.586 489.241 151.08C490.652 152.574 492.298 153.763 494.15 154.586C496.002 155.41 497.971 155.837 500.088 155.837C503.38 155.837 506.202 155.074 508.495 153.519C510.788 151.964 512.64 149.738 513.992 146.811C519.489 146.903 524.339 149.037 528.513 153.275Z" fill="#006098"/>
<path d="M578.22 160.929C576.369 164.039 573.87 166.478 570.725 168.277C567.579 170.076 563.993 170.96 559.966 170.96C552.47 170.96 546.885 168.582 543.211 163.795C539.536 159.038 537.714 152.666 537.714 144.707V107.447C542.917 106.075 548.208 106.136 553.558 107.447V142.695C553.558 147.116 554.498 150.409 556.409 152.544C558.29 154.678 561.054 155.745 564.699 155.745C566.874 155.745 568.784 155.257 570.431 154.312C572.077 153.336 573.488 152.056 574.664 150.409C575.839 148.793 576.721 146.842 577.338 144.646C577.956 142.42 578.25 140.073 578.25 137.542V107.416C583.658 106.166 588.95 105.983 594.094 107.416V168.917H579.22V160.929H578.22Z" fill="#006098"/>
<path d="M715.291 161.569H714.321C712.88 164.161 710.617 166.387 707.56 168.216C704.503 170.046 700.71 170.991 696.184 170.991C692.392 170.991 688.776 170.168 685.366 168.552C681.927 166.905 678.899 164.649 676.283 161.782C673.667 158.886 671.58 155.44 670.051 151.415C668.523 147.39 667.758 143 667.758 138.243C667.758 133.486 668.523 129.096 670.051 125.071C671.58 121.046 673.667 117.6 676.283 114.704C678.899 111.807 681.927 109.551 685.366 107.935C688.805 106.318 692.392 105.495 696.184 105.495C700.71 105.495 704.503 106.41 707.56 108.27C710.617 110.099 712.88 112.325 714.321 114.917H715.291L714.321 106.136V79.1505C719.377 77.7784 724.668 77.9004 730.165 79.1505V169.009H715.291V161.569ZM699.447 155.776C701.534 155.776 703.533 155.379 705.443 154.586C707.324 153.794 709 152.635 710.47 151.141C711.91 149.647 713.086 147.787 713.968 145.622C714.85 143.457 715.291 140.987 715.291 138.213C715.291 135.438 714.85 132.998 713.968 130.803C713.086 128.638 711.91 126.778 710.47 125.284C709.029 123.79 707.354 122.631 705.443 121.839C703.533 121.046 701.563 120.649 699.447 120.649C697.359 120.649 695.361 121.076 693.45 121.9C691.539 122.723 689.893 123.912 688.423 125.406C686.983 126.9 685.807 128.76 684.925 130.925C684.043 133.09 683.602 135.529 683.602 138.213C683.602 140.896 684.043 143.305 684.925 145.5C685.807 147.665 686.983 149.525 688.423 151.019C689.864 152.513 691.539 153.702 693.45 154.525C695.361 155.379 697.359 155.776 699.447 155.776Z" fill="#006098"/>
<path d="M743.716 107.477H758.59V116.015H759.56C760.295 114.521 761.265 113.118 762.47 111.868C763.675 110.618 765.027 109.52 766.526 108.575C768.026 107.63 769.642 106.898 771.377 106.318C773.111 105.739 774.816 105.465 776.521 105.465C778.608 105.465 780.401 105.709 781.9 106.166C783.399 106.623 784.663 107.233 785.722 107.965C788.426 110.069 785.457 120.893 781.489 122.662C780.519 122.174 779.46 121.778 778.285 121.473C777.109 121.168 775.698 121.046 773.993 121.046C771.818 121.046 769.848 121.503 768.055 122.357C766.291 123.241 764.763 124.491 763.528 126.077C762.264 127.662 761.323 129.553 760.618 131.687C759.942 133.822 759.589 136.17 759.589 138.7V168.978H743.745V107.477H743.716Z" fill="#006098"/>
<path d="M827.081 162.453H826.111C824.259 164.801 822.025 166.814 819.409 168.491C816.792 170.168 813.412 170.991 809.297 170.991C806.24 170.991 803.359 170.473 800.654 169.436C797.95 168.399 795.598 166.936 793.57 165.106C791.542 163.277 789.984 161.051 788.838 158.459C787.721 155.867 787.133 153.031 787.133 149.921C787.133 146.75 787.75 143.884 788.955 141.323C790.16 138.761 791.865 136.566 794.04 134.737C796.216 132.907 798.773 131.504 801.713 130.529C804.652 129.553 807.856 129.096 811.325 129.096C815.205 129.096 818.38 129.401 820.878 130.041C823.377 130.681 825.435 131.321 827.051 131.992V130.102C827.051 126.839 825.787 124.156 823.289 122.022C820.79 119.887 817.674 118.82 813.97 118.82C808.474 118.82 803.858 121.198 800.066 125.985C797.95 127.175 787.133 124.186 788.573 117.814C794.864 109.612 803.447 105.526 814.353 105.526C823.553 105.526 830.549 107.752 835.4 112.234C840.25 116.716 842.66 123.333 842.66 132.114V169.009H827.051V162.453H827.081ZM827.081 144.006C825.229 143.091 823.318 142.359 821.349 141.811C819.379 141.262 817.204 140.987 814.882 140.987C811.09 140.987 808.18 141.841 806.122 143.549C804.064 145.256 803.035 147.39 803.035 149.891C803.035 152.391 804.035 154.404 806.004 155.928C807.974 157.422 810.267 158.184 812.853 158.184C814.94 158.184 816.881 157.788 818.674 156.995C820.437 156.203 821.966 155.166 823.201 153.855C824.465 152.544 825.405 151.049 826.111 149.342C826.728 147.604 827.081 145.835 827.081 144.006Z" fill="#006098"/>
<path d="M643.684 163.429H642.714C640.862 165.777 638.628 167.789 636.011 169.466C633.395 171.143 630.015 171.967 625.899 171.967C622.842 171.967 619.962 171.448 617.257 170.412C614.553 169.375 612.201 167.911 610.173 166.082C608.145 164.252 606.587 162.026 605.44 159.435C604.323 156.843 603.735 154.007 603.735 150.897C603.735 147.726 604.353 144.86 605.558 142.298C606.763 139.737 608.468 137.542 610.643 135.712C612.819 133.883 615.376 132.48 618.316 131.504C621.255 130.529 624.459 130.071 627.928 130.071C631.808 130.071 634.983 130.376 637.481 131.017C639.98 131.657 642.037 132.297 643.654 132.968V131.078C643.654 127.815 642.39 125.132 639.892 122.997C637.393 120.863 634.277 119.796 630.573 119.796C625.076 119.796 620.461 122.174 616.669 126.961C614.553 128.15 603.735 125.162 605.176 118.79C611.466 110.587 620.05 106.501 630.955 106.501C640.156 106.501 647.152 108.727 652.002 113.21C656.853 117.692 659.263 124.308 659.263 133.09V169.985H643.654V163.429H643.684ZM643.684 144.982C641.832 144.067 639.921 143.335 637.952 142.786C635.982 142.237 633.807 141.963 631.485 141.963C627.693 141.963 624.782 142.817 622.725 144.524C620.667 146.232 619.638 148.366 619.638 150.867C619.638 153.367 620.638 155.379 622.607 156.904C624.577 158.398 626.87 159.16 629.456 159.16C631.543 159.16 633.483 158.764 635.277 157.971C637.04 157.178 638.569 156.142 639.803 154.83C641.067 153.519 642.008 152.025 642.714 150.318C643.331 148.61 643.684 146.842 643.684 144.982Z" fill="#006098"/>
<path d="M878.14 170.96C874.26 170.96 870.821 170.472 867.793 169.466C864.765 168.46 862.149 167.149 859.915 165.502C857.711 163.856 855.829 161.996 854.301 159.861C852.772 157.727 851.596 155.562 850.803 153.397C852.243 148.458 861.062 145.287 864.971 147.116C866.353 150.287 868.175 152.665 870.468 154.221C872.761 155.776 875.318 156.538 878.14 156.538C881.05 156.538 883.343 155.989 885.048 154.922C886.753 153.824 887.576 152.544 887.576 151.019C887.576 149.342 886.871 148 885.46 146.933C884.049 145.896 881.609 144.951 878.14 144.097L869.792 142.207C867.94 141.78 866.029 141.109 864.06 140.194C862.09 139.28 860.297 138.091 858.681 136.688C857.064 135.255 855.741 133.547 854.683 131.535C853.625 129.522 853.095 127.175 853.095 124.522C853.095 121.503 853.713 118.82 854.977 116.503C856.241 114.155 857.946 112.173 860.121 110.526C862.296 108.91 864.854 107.63 867.793 106.776C870.733 105.892 873.907 105.465 877.288 105.465C882.932 105.465 887.988 106.623 892.397 108.91C896.836 111.228 900.099 114.856 902.186 119.887C901.774 123.424 890.78 128.73 888.517 125.65C887.4 123.211 885.724 121.473 883.549 120.375C881.374 119.277 879.198 118.759 877.023 118.759C874.76 118.759 872.79 119.247 871.085 120.192C869.38 121.168 868.557 122.387 868.557 123.881C868.557 125.315 869.263 126.443 870.674 127.266C872.085 128.089 873.995 128.852 876.406 129.522L885.489 131.779C891.545 133.273 896.042 135.682 898.982 139.005C901.921 142.298 903.391 146.232 903.391 150.744C903.391 153.428 902.774 155.989 901.568 158.398C900.363 160.837 898.629 162.972 896.424 164.862C894.22 166.753 891.545 168.216 888.429 169.314C885.372 170.442 881.932 170.96 878.14 170.96Z" fill="#006098"/>
</svg>
