<svg width="500" height="77" viewBox="0 0 500 77" fill="none" xmlns="http://www.w3.org/2000/svg">
<path d="M33.1879 53.5738C33.8758 55.3019 33.6577 57.5167 33.3221 58.859C32.7349 61.2415 31.1241 63.6744 26.359 63.6744C21.8959 63.6744 19.1778 61.0905 19.1778 57.1979V50.2684H0V55.7717C0 71.7113 12.5335 76.5267 25.9731 76.5267C38.8926 76.5267 49.5301 72.1308 51.2248 60.2013C52.0972 54.0268 51.4597 49.9832 51.1576 48.4899C48.1375 33.5234 21.0235 29.0604 18.9933 20.6879C18.7114 19.453 18.6879 18.1728 18.9261 16.9295C19.4295 14.6309 20.9899 12.1309 25.453 12.1309C29.6476 12.1309 32.0805 14.7147 32.0805 18.6074V23.0369H49.916V18.0033C49.916 2.43288 35.9395 0 25.8389 0C13.1208 0 2.7349 4.2114 0.838925 15.8725C0.33557 19.0604 0.251678 21.9127 1.00671 25.5033C4.11073 40.1006 29.4966 44.3288 33.1879 53.5738Z" fill="black"/>
<path d="M79.9216 2.54192L66.6666 74.0016H85.9786L95.7605 9.15265H96.1632L105.677 74.0016H124.888L111.717 2.52515L79.9216 2.54192ZM187.891 2.54192L179.083 57.1727H178.663L169.871 2.54192H140.727L139.15 74.0016H157.036L157.472 9.75668H157.874L169.804 74.0016H187.942L199.888 9.77346H200.274L200.727 74.0016H218.596L217.019 2.52515L187.891 2.54192Z" fill="black"/>
<path d="M266.784 53.5738C267.472 55.3019 267.254 57.5167 266.918 58.859C266.331 61.2415 264.72 63.6744 259.955 63.6744C255.492 63.6744 252.774 61.0905 252.774 57.1979V50.2684H233.596V55.7717C233.596 71.7113 246.129 76.5267 259.569 76.5267C272.488 76.5267 283.126 72.1308 284.821 60.2013C285.693 54.0268 285.056 49.9832 284.754 48.4899C281.733 33.5234 254.619 29.0604 252.589 20.6879C252.307 19.453 252.284 18.1728 252.522 16.9295C253.025 14.6309 254.586 12.1309 259.049 12.1309C263.243 12.1309 265.676 14.7147 265.676 18.6074V23.0369H283.512V18.0033C283.512 2.43288 269.535 0 259.435 0C246.717 0 236.331 4.2114 234.435 15.8725C233.931 19.0604 233.848 21.9127 234.603 25.5033C237.707 40.1006 263.092 44.3288 266.784 53.5738Z" fill="black"/>
<path d="M325.381 63.1962C330.348 63.1962 331.875 59.7734 332.227 58.0284C332.378 57.2566 332.395 56.2164 332.395 55.2935V2.44127H350.482V53.666C350.485 55.2331 350.43 56.8002 350.314 58.364C349.056 71.7029 338.519 76.0318 325.381 76.0318C312.227 76.0318 301.69 71.7029 300.432 58.364C300.381 57.6593 300.247 54.9747 300.264 53.666V2.42449H318.351V55.2768C318.334 56.2164 318.368 57.2566 318.519 58.0284C318.854 59.7734 320.398 63.1962 325.381 63.1962ZM412.764 2.44127L413.737 58.5318H413.351L396.908 2.44127H370.398V73.1459H387.965L386.992 15.109H387.378L405.012 73.1459H430.465V2.44127H412.764ZM474.425 62.458C479.592 62.458 481.405 59.1862 481.723 57.2566C481.874 56.468 481.891 55.4613 481.891 54.5721V44.1694H474.559V33.7667H499.878V52.9278C499.878 54.2701 499.844 55.2432 499.626 57.6258C498.452 70.6459 487.16 75.2935 474.492 75.2935C461.824 75.2935 450.549 70.6459 449.358 57.6258C449.156 55.2432 449.106 54.2701 449.106 52.9278V22.8607C449.106 21.5855 449.274 19.3372 449.408 18.1627C451.002 4.79026 461.824 0.494965 474.492 0.494965C487.16 0.494965 498.267 4.7567 499.576 18.1459C499.811 20.4278 499.744 22.8439 499.744 22.8439V25.2433H481.723V21.2332C481.723 21.2332 481.723 19.5553 481.505 18.5151C481.17 16.9379 479.827 13.3137 474.358 13.3137C469.156 13.3137 467.629 16.7533 467.244 18.5151C467.025 19.4547 466.942 20.7298 466.942 21.8876V54.5553C466.942 55.4613 466.975 56.468 467.109 57.2734C467.445 59.1862 469.257 62.458 474.425 62.458Z" fill="black"/>
</svg>
