<svg width="1030" height="323" viewBox="0 0 1030 323" fill="none" xmlns="http://www.w3.org/2000/svg">
<path fill-rule="evenodd" clip-rule="evenodd" d="M883.675 23.6073C917.23 11.6769 939.412 28.8384 939.412 28.8384C939.412 28.8384 916.927 22.7551 899.082 27.3872L883.675 23.6073Z" fill="#008358" stroke="white" stroke-width="2.90168" stroke-miterlimit="100"/>
<path fill-rule="evenodd" clip-rule="evenodd" d="M883.675 23.6073C917.23 11.6769 939.412 28.8384 939.412 28.8384C939.412 28.8384 916.927 22.7551 899.082 27.3872L883.675 23.6073Z" stroke="#008358" stroke-width="2.90168" stroke-miterlimit="100"/>
<path fill-rule="evenodd" clip-rule="evenodd" d="M900.035 39.3681C938.256 33.6139 939.167 45.4852 939.167 45.4852C939.167 45.4852 931.278 42.009 913.442 43.764L900.035 39.3681Z" fill="#008358" stroke="#008358" stroke-width="2.90168" stroke-miterlimit="100"/>
<path fill-rule="evenodd" clip-rule="evenodd" d="M900.035 39.3681C938.256 33.6139 939.167 45.4852 939.167 45.4852C939.167 45.4852 931.278 42.009 913.442 43.764L900.035 39.3681Z" stroke="#008358" stroke-width="2.90168" stroke-miterlimit="100"/>
<path fill-rule="evenodd" clip-rule="evenodd" d="M874.9 161.946C890.324 147.881 909.932 150.513 915.433 159.246C923.035 170.948 919.002 184.423 908.422 194.067C908.422 194.067 923.035 177.681 912.573 163.895C907.03 156.377 891.226 156.039 879.195 166.282C867.222 176.238 855.866 201.306 884.198 207.507C859.637 209.296 854.321 180.001 874.9 161.946Z" fill="#008358" stroke="#008358" stroke-width="2.90168" stroke-miterlimit="100"/>
<path fill-rule="evenodd" clip-rule="evenodd" d="M874.9 161.946C890.324 147.881 909.932 150.513 915.433 159.246C923.035 170.948 919.002 184.423 908.422 194.067C908.422 194.067 923.035 177.681 912.573 163.895C907.03 156.377 891.226 156.039 879.195 166.282C867.222 176.238 855.866 201.306 884.198 207.507C859.637 209.296 854.321 180.001 874.9 161.946Z" stroke="#008358" stroke-width="2.90168" stroke-miterlimit="100"/>
<path fill-rule="evenodd" clip-rule="evenodd" d="M955.24 102.851C1064.54 58.1074 1060.77 189.73 874.529 308.046C1027.44 182.971 1055.81 87.3765 955.24 102.851Z" fill="#008358" stroke="#008358" stroke-width="2.90168" stroke-miterlimit="100"/>
<path fill-rule="evenodd" clip-rule="evenodd" d="M955.24 102.851C1064.54 58.1074 1060.77 189.73 874.529 308.046C1027.44 182.971 1055.81 87.3765 955.24 102.851Z" stroke="#008358" stroke-width="2.90168" stroke-miterlimit="100"/>
<path fill-rule="evenodd" clip-rule="evenodd" d="M795.884 174.197C687.456 216.535 753.276 260.974 753.276 260.974C753.276 260.974 713.199 218.324 795.884 174.197Z" fill="#008358" stroke="#008358" stroke-width="2.90168" stroke-miterlimit="100"/>
<path fill-rule="evenodd" clip-rule="evenodd" d="M795.884 174.197C687.456 216.535 753.276 260.974 753.276 260.974C753.276 260.974 713.199 218.324 795.884 174.197Z" stroke="#008358" stroke-width="2.90168" stroke-miterlimit="100"/>
<path fill-rule="evenodd" clip-rule="evenodd" d="M892.079 260.975C961.054 225.926 915.796 189.35 915.796 189.35C915.796 189.35 939.412 228.558 883.895 260.975H892.079Z" fill="#008358" stroke="#008358" stroke-width="2.90168" stroke-miterlimit="100"/>
<path fill-rule="evenodd" clip-rule="evenodd" d="M892.079 260.975C961.054 225.926 915.796 189.35 915.796 189.35C915.796 189.35 939.412 228.558 883.895 260.975H892.079Z" stroke="#008358" stroke-width="2.90168" stroke-miterlimit="100"/>
<path fill-rule="evenodd" clip-rule="evenodd" d="M794.374 186.439C794.374 186.439 804.651 164.241 812.261 132.077C812.261 132.077 816.404 163.068 794.374 186.439Z" fill="#008358" stroke="#008358" stroke-width="2.90168" stroke-miterlimit="100"/>
<path fill-rule="evenodd" clip-rule="evenodd" d="M794.374 186.439C794.374 186.439 804.651 164.241 812.261 132.077C812.261 132.077 816.404 163.068 794.374 186.439Z" stroke="#008358" stroke-width="2.90168" stroke-miterlimit="100"/>
<path fill-rule="evenodd" clip-rule="evenodd" d="M774.631 187.308C774.631 187.308 713.452 127.96 809.325 85.6384C837.101 73.3368 872.766 70.0884 889.201 93.1983C894.137 100.252 894.72 147.585 843.539 184.077C821.332 176.837 819.341 164.24 819.341 164.24C829.533 176.238 843.927 178.896 843.927 178.896C886.223 144.059 887.986 100.809 882.705 95.8729C866.066 80.9641 839.194 80.9641 812.818 91.4602C729.002 125.96 774.631 187.308 774.631 187.308Z" fill="#008358" stroke="#008358" stroke-width="2.90168" stroke-miterlimit="100"/>
<path fill-rule="evenodd" clip-rule="evenodd" d="M774.631 187.308C774.631 187.308 713.452 127.96 809.325 85.6384C837.101 73.3368 872.766 70.0884 889.201 93.1983C894.137 100.252 894.72 147.585 843.539 184.077C821.332 176.837 819.341 164.24 819.341 164.24C829.533 176.238 843.927 178.896 843.927 178.896C886.223 144.059 887.986 100.809 882.705 95.8729C866.066 80.9641 839.194 80.9641 812.818 91.4602C729.002 125.96 774.631 187.308 774.631 187.308Z" stroke="#008358" stroke-width="2.90168" stroke-miterlimit="100"/>
<path fill-rule="evenodd" clip-rule="evenodd" d="M814.911 260.721H804.44C804.44 260.721 828.369 219.176 865.476 211.355C865.476 211.355 831.828 224.441 814.911 260.721Z" fill="#008358" stroke="#008358" stroke-width="2.90168" stroke-miterlimit="100"/>
<path fill-rule="evenodd" clip-rule="evenodd" d="M814.911 260.721H804.44C804.44 260.721 828.369 219.176 865.476 211.355C865.476 211.355 831.828 224.441 814.911 260.721Z" stroke="#008358" stroke-width="2.90168" stroke-miterlimit="100"/>
<path fill-rule="evenodd" clip-rule="evenodd" d="M935.345 56.9853C935.345 56.9853 929.743 64.2667 935.598 79.2008C941.15 93.7974 956.101 108.968 956.101 108.968C956.101 108.968 938.864 83.5544 935.345 56.9853Z" fill="#008358" stroke="#008358" stroke-width="2.90168" stroke-miterlimit="100"/>
<path fill-rule="evenodd" clip-rule="evenodd" d="M935.345 56.9853C935.345 56.9853 929.743 64.2667 935.598 79.2008C941.15 93.7974 956.101 108.968 956.101 108.968C956.101 108.968 938.864 83.5544 935.345 56.9853Z" stroke="#008358" stroke-width="2.90168" stroke-miterlimit="100"/>
<path fill-rule="evenodd" clip-rule="evenodd" d="M826.318 39.1403C826.318 39.1403 827.82 13.7524 862.615 5.25603C910.48 -6.72497 930.637 13.4149 930.637 13.4149C930.637 13.4149 903.224 4.65697 866.978 11.6768C856.397 13.9633 841.193 21.6075 835.616 36.761C835.135 38.2291 849.715 43.764 849.715 43.764C849.715 43.764 862.286 99.4419 896.441 119.523C911.113 113.718 921.305 96.4298 921.305 96.4298C921.305 96.1767 919.289 115.38 897.023 123.893C855.553 102.268 842.062 47.9067 842.062 47.9067C842.062 47.9067 827.457 42.8949 826.318 39.1403Z" fill="#008358" stroke="#008358" stroke-width="2.90168" stroke-miterlimit="100"/>
<path fill-rule="evenodd" clip-rule="evenodd" d="M826.318 39.1403C826.318 39.1403 827.82 13.7524 862.615 5.25603C910.48 -6.72497 930.637 13.4149 930.637 13.4149C930.637 13.4149 903.224 4.65697 866.978 11.6768C856.397 13.9633 841.193 21.6075 835.616 36.761C835.135 38.2291 849.715 43.764 849.715 43.764C849.715 43.764 862.286 99.4419 896.441 119.523C911.113 113.718 921.305 96.4298 921.305 96.4298C921.305 96.1767 919.289 115.38 897.023 123.893C855.553 102.268 842.062 47.9067 842.062 47.9067C842.062 47.9067 827.457 42.8949 826.318 39.1403Z" stroke="#008358" stroke-width="2.90168" stroke-miterlimit="100"/>
<path fill-rule="evenodd" clip-rule="evenodd" d="M840.915 109.854C762.566 130.331 793.531 163.346 793.531 163.346C793.531 163.346 776.319 137.342 840.915 109.854Z" fill="#008358" stroke="#008358" stroke-width="2.90168" stroke-miterlimit="100"/>
<path fill-rule="evenodd" clip-rule="evenodd" d="M840.915 109.854C762.566 130.331 793.531 163.346 793.531 163.346C793.531 163.346 776.319 137.342 840.915 109.854Z" stroke="#008358" stroke-width="2.90168" stroke-miterlimit="100"/>
<path fill-rule="evenodd" clip-rule="evenodd" d="M224.576 126.349C227.816 126.07 231.748 125.809 235.19 125.809C237.561 125.809 242.092 126.07 245.003 126.349V125.404L239.586 123.564C237.831 123.033 237.629 121.472 237.629 112.68V104.901H242.843C247.045 110.377 253.052 119.042 257.389 126.349C259.077 126.205 260.764 126.07 262.392 126.07C263.945 126.07 265.573 126.205 267.134 126.349V125.404C263.337 124.72 263 124.248 259.077 118.367L249.736 104.42C255.963 103.416 260.84 100.159 260.84 93.3164C260.84 86.5581 255.018 82.9216 246.091 82.9216C241.282 82.9216 237.426 83.4532 233.908 83.4532C230.255 83.4532 227.082 83.1832 224.576 82.9216V83.8582L230.255 85.7481C231.748 86.229 231.95 86.7016 231.95 93.0464V117.548C231.95 122.754 231.672 123.033 229.782 123.64L224.576 125.404V126.349ZM299.407 127.142C312.881 127.142 320.939 116.528 320.939 103.137C320.939 90.8105 312.94 82.0863 300.495 82.0863C286.835 82.0863 278.373 91.5615 278.373 105.027C278.373 115.996 285.342 127.142 299.407 127.142ZM14.9087 242.151C14.9087 252.681 14.3603 253.221 10.5298 254.452L0 258.021V259.92C6.15081 259.388 11.6181 258.831 18.0473 258.831C26.5269 258.831 37.2001 259.92 47.5949 259.92C67.2792 259.92 77.134 249.264 77.134 236.684C77.134 220.551 61.3984 215.48 47.8649 214.519V214.24C60.7234 213.017 73.0251 206.309 73.0251 194.961C73.0251 178.559 58.2597 172.121 43.6294 172.121C35.8333 172.121 25.43 173.209 19.9711 173.209C14.4953 173.209 7.52609 172.678 0 172.121V174.045L11.4833 177.867C14.4954 178.829 14.9087 179.791 14.9087 192.641V242.151ZM147.746 261.574C174.965 261.574 191.24 240.092 191.24 213.008C191.24 188.118 175.1 170.484 149.94 170.484C122.316 170.484 105.222 189.637 105.222 216.847C105.222 239.004 119.304 261.574 147.746 261.574ZM449.034 259.92C454.097 259.38 459.159 258.823 464.222 258.823C469.681 258.823 475.022 259.38 480.354 259.92V258.013L468.592 253.769C470.507 246.108 472.701 238.042 476.388 231.064C482.134 230.929 487.736 230.794 493.482 230.794C499.22 230.794 505.1 230.929 510.846 231.064C512.77 235.182 517.149 248.032 518.778 253.769C514.685 255.406 508.804 257.195 505.379 258.013V259.92C511.538 259.38 517.546 258.823 523.705 258.823C530.952 258.823 538.065 259.38 545.313 259.92V258.013L533.83 254.039C522.194 226.28 509.893 197.838 498.95 169.387H495.938C486.1 194.008 471.334 225.462 459.429 253.507C456.147 255.271 452.317 256.773 449.034 258.013V259.92ZM554.771 259.92C561.335 259.388 569.275 258.831 576.244 258.831C581.036 258.831 590.199 259.388 596.08 259.92V258.021L585.137 254.317C581.576 253.221 581.171 250.09 581.171 232.304V216.569H591.701C600.181 227.655 612.356 245.155 621.105 259.92C624.522 259.658 627.948 259.388 631.222 259.388C634.369 259.388 637.651 259.658 640.798 259.92L640.806 258.021C633.137 256.638 632.462 255.693 624.522 243.788L605.657 215.607C618.237 213.574 628.083 207.001 628.083 193.189C628.083 179.521 616.313 172.121 598.266 172.121C588.554 172.121 580.758 173.209 573.654 173.209C566.271 173.209 559.833 172.678 554.771 172.121V174.045L566.271 177.867C569.275 178.829 569.68 179.791 569.68 192.641V242.151C569.68 252.681 569.131 253.221 565.309 254.452L554.771 258.021V259.92ZM18.3005 114.233H19.254L21.5574 122.965C23.5824 124.104 26.7632 124.509 28.4591 124.509C33.8674 124.509 38.8117 122.079 38.8117 115.785C38.8117 106.183 17.6339 106.993 17.6339 94.2698C17.6339 86.0856 25.2108 82.0863 32.5175 82.0863C35.3609 82.0863 39.6891 82.9723 42.5325 84.2632L42.1275 93.5274H41.3851L38.7441 86.0097C36.4407 85.1237 34.205 84.7272 31.91 84.7272C27.6492 84.7272 23.7174 88.0431 23.7174 92.5824C23.7174 103.197 44.9034 100.497 44.9034 114.503C44.9034 120.383 40.4991 127.142 27.1681 127.142C23.9282 127.142 21.0175 126.745 17.1616 125.26L18.3005 114.233ZM65.7267 93.038C65.7267 86.6931 65.5326 86.2206 64.0308 85.7397L58.3525 83.8497V82.9132C63.9802 83.1747 69.1186 83.4447 74.2569 83.4447C80.6862 83.4447 87.0394 83.1747 92.9962 82.9132C92.9371 84.5838 92.7937 87.0306 92.7937 88.0431C92.7937 89.0556 92.9371 91.3674 92.9962 92.9114H92.0513L90.2963 87.8406C89.6213 85.9506 89.0729 85.9507 81.2937 85.9507C77.3704 85.9507 74.2569 86.0097 71.7511 86.0772C71.6161 88.4565 71.4134 90.9455 71.4134 93.7974V102.117H78.4502C86.6344 102.117 87.3854 101.982 87.9929 100.497L89.7562 95.6789H90.7013C90.6338 98.2607 90.5663 100.826 90.5663 103.332C90.5663 106.107 90.6338 108.689 90.7013 111.524H89.7562L87.9929 106.377C87.3854 104.892 86.6344 104.757 78.4502 104.757H71.4134V113.954C71.4134 117.068 71.6161 120.189 71.7511 123.024C74.9319 123.1 78.1212 123.286 81.1586 123.286C88.3978 123.286 89.4104 123.227 90.0853 122.408C90.9038 121.396 91.6463 119.227 92.8613 115.245H93.8146C93.6796 117.202 93.4096 119.227 93.4096 121.193L93.4012 126.34C89.8912 126.062 79.4711 125.8 75.6743 125.8C69.726 125.8 63.2208 126.062 58.3525 126.34V125.395L63.5669 123.632C65.4653 123.024 65.7267 122.746 65.7267 117.54V93.038ZM139.131 111.254C139.131 110.174 138.861 109.761 135.824 108.605L131.766 107.052V106.107C135.014 106.242 138.254 106.647 141.502 106.647C144.557 106.647 147.535 106.242 150.505 106.107V107.052L146.244 109.094C145.029 109.685 144.818 110.368 144.818 111.786V122.206C144.818 122.889 144.894 124.045 144.953 125.26C142.397 126.062 136.769 127.142 132.238 127.142C116.815 127.142 107.348 118.147 107.348 105.432C107.348 89.9415 121.818 82.0779 133.799 82.0779C137.512 82.0779 140.498 82.4238 143.409 83.0398C143.333 84.7947 143.266 86.5497 143.266 88.2371C143.266 90.2115 143.333 92.1774 143.409 94.1348H142.456C141.502 91.2239 140.22 87.4946 139.207 86.2206C138.524 85.3431 134.474 84.7272 131.833 84.7272C122.299 84.7272 114.241 91.2915 114.241 104.817C114.241 116.452 121.135 124.509 131.226 124.509C134.069 124.509 136.634 124.18 139.005 123.37C139.072 122.341 139.131 121.32 139.131 120.864V111.254ZM210.579 83.8497L207.592 84.9888C205.837 85.7397 204.892 86.3556 204.816 87.7646C204.69 91.553 204.816 97.1048 204.69 109.145C204.546 122.265 198.125 127.142 188.043 127.142C178.23 127.142 171.404 122.889 171.404 112.537V93.5274C171.404 87.8322 171.193 86.4906 169.303 85.7397L164.435 83.8497V82.9047C167.751 83.1747 170.923 83.4363 174.104 83.4363C177.699 83.4363 181.208 83.1747 184.803 82.9047V83.8497L181.681 84.9888C177.969 86.4147 177.429 86.6847 177.285 89.0556C177.083 93.038 177.082 98.8597 177.082 109.28C177.082 117.945 179.04 123.632 189.798 123.632C196.902 123.632 201.171 119.219 201.171 111.111C201.171 102.792 201.104 92.0339 200.555 87.3597C200.429 86.1363 199.408 85.6047 197.585 84.9888L193.856 83.8497V82.9047C196.767 83.1747 199.678 83.4363 202.656 83.4363C205.229 83.4363 207.862 83.1747 210.579 82.9047V83.8497ZM237.62 85.7397C239.654 85.7397 241.679 85.6807 243.847 85.6807C250.217 85.6807 254.335 88.2456 254.335 94.2023C254.335 101.636 248.513 102.657 242.227 102.657H237.62V85.7397ZM300.09 124.906C290.202 124.906 285.266 115.718 285.266 101.771C285.266 92.1774 290.345 84.3138 299.736 84.3138C310.907 84.3138 314.02 95.0882 314.02 106.377C314.02 115.583 310.367 124.906 300.09 124.906ZM337.037 114.233H337.982L340.286 122.965C342.319 124.104 345.5 124.492 347.188 124.509C352.604 124.56 357.54 122.079 357.54 115.777C357.54 106.183 336.362 106.985 336.362 94.2698C336.362 86.0772 343.939 82.0779 351.254 82.0779C354.089 82.0779 358.418 82.9723 361.252 84.2632L360.856 93.5274H360.114L357.473 86.0097C355.169 85.1237 352.933 84.7188 350.638 84.7188C346.369 84.7188 342.454 88.0431 342.454 92.5824C342.454 103.197 363.623 100.497 363.623 114.503C363.623 120.383 359.236 127.142 345.905 127.142C342.657 127.142 339.746 126.737 335.882 125.26L337.037 114.233ZM316.973 166.595H322.652L343.29 152.985C343.29 152.985 351.297 147.822 346.825 143.443C342.437 139.173 334.953 147.779 334.953 147.779L316.973 166.595ZM26.3835 216.434H36.0949C51.4087 216.434 63.9972 221.353 63.9972 236.253C63.9972 252.402 50.4553 255.406 37.1918 255.406C33.7662 255.406 30.4841 255.136 26.797 254.992C26.5185 250.757 26.3835 246.665 26.3835 242.412V216.434ZM26.3835 193.324C26.3835 187.173 26.5185 183.199 26.797 176.913C31.4459 176.635 34.3147 176.635 38.6852 176.635C50.3203 176.635 59.8966 181.419 59.8966 194.826C59.8966 210.418 45.9412 211.92 36.9217 211.92H26.3835V193.324ZM149.104 257.051C129.142 257.051 119.16 238.447 119.16 210.283C119.16 190.86 129.412 174.998 148.429 174.998C170.991 174.998 177.277 196.741 177.277 219.581C177.277 238.177 169.902 257.051 149.104 257.051ZM231.866 192.632C231.866 179.782 231.461 178.82 228.441 177.867L216.966 174.036V172.121C223.522 172.678 230.229 173.209 237.207 173.209C244.176 173.209 250.875 172.678 259.22 172.121V174.036L246.766 177.867C243.763 178.82 243.349 179.782 243.349 193.729V253.761H269.885C276.728 253.761 277.681 252.672 280.145 247.205L284.38 237.907H286.025L284.937 259.911C271.665 259.38 253.339 258.823 245.138 258.823C235.832 258.823 226.399 259.38 216.966 259.911V258.013L227.487 254.444C231.326 253.212 231.866 252.672 231.866 242.151V192.632ZM305.642 258.005L316.172 254.436C319.589 253.212 320.002 252.672 320.137 242.142C320.281 233.933 320.551 225.588 320.551 217.387C320.551 209.186 320.281 200.833 320.137 192.632C319.859 179.782 319.733 178.82 317.134 177.858L305.642 174.036V172.113C312.206 172.669 318.906 173.201 326.567 173.201C333.401 173.201 340.109 172.669 346.943 172.113V174.036L335.46 177.858C332.861 178.82 332.718 179.782 332.448 192.632C332.304 200.833 332.034 209.186 332.034 217.387C332.034 225.588 332.304 233.933 332.448 242.142C332.591 252.672 332.996 253.212 336.413 254.436L346.943 258.005V259.911C340.522 259.371 332.591 258.815 326.567 258.815C319.733 258.815 311.793 259.371 305.642 259.911V258.005ZM365.53 172.113C371.825 172.669 378.254 173.201 384.54 173.201C390.285 173.201 396.158 172.669 401.904 172.113V174.028L397.12 175.386C390.834 177.175 389.594 177.858 389.594 179.369C389.594 182.221 407.11 224.762 413.53 239.257C421.875 219.303 429.536 199.593 434.328 184.414C435.138 181.967 435.695 180.466 435.695 178.947C435.695 177.445 431.451 175.952 425.435 174.028V172.113C430.624 172.669 435.83 173.201 441.019 173.201C445.263 173.201 449.364 172.669 453.464 172.113V174.028C447.583 175.53 445.677 177.04 443.483 181.697C434.868 200.42 424.068 227.369 411.48 261.557H408.341C399.448 236.667 385.501 202.2 376.878 182.364C374.685 177.31 373.74 176.905 369.361 175.386L365.53 174.028V172.113ZM509.066 225.453H478.295L494.022 189.207L509.066 225.453ZM581.163 177.858C585.255 177.858 589.364 177.715 593.743 177.715C606.602 177.715 614.938 182.921 614.938 194.952C614.938 210.005 603.184 212.038 590.453 212.038H581.163V177.858Z" fill="#008358"/>
</svg>
