<svg width="800" height="179" viewBox="0 0 800 179" fill="none" xmlns="http://www.w3.org/2000/svg">
<path d="M710.1 158.6C712.943 157.7 715.315 158.523 719.049 157.543C729.749 157.043 738.3 143.8 734.4 133.8L705.6 61.5C713.58 57.6851 720.103 58.6084 728.1 60.3C735.6 74.9 738.7 91.1 744.6 106.2C745.5 108.7 746.4 111.2 748 115.5C753.8 98 758.9 82.3 764.1 66.7C764.9 64.3 765.3 61.6536 767.7 60C774.608 57.5862 781.092 58.7467 788 60.7C791.6 64.5 788.9 68.5 787.6 71.9C776.9 99.7 765.7 127.3 754.5 154.8C753.5 157.3 752.1 159.7 750.9 162.1C746.4 170.6 739.8 175.9 729.9 176.5C702.041 176.535 710.227 177.501 710.1 158.6Z" fill="#DB1E35"/>
<path d="M9.50002 64.8C12.3 61.2 15.5 60.8 19.5 63.2C31 70 42.8 76.4 54.3 83.3C61 87.3 61 91.6 54.3 95.6C42.8 102.5 31 108.9 19.4 115.6C15.6 117.8 12.2 118.2 9.40002 114.2C9.50002 97.7 9.50002 81.3 9.50002 64.8Z" fill="#9769A4"/>
<path d="M16 2.30001C28.3 9.40001 40.6 16.4 52.9 23.6C61.6 28.7 61.6 32.2 52.7 37.3C41.8 43.6 30.9 49.8 20 56.1C16 58.4 12.4 59.4 9.39999 54.8C9.39999 39.5 9.7 24.1 9.2 8.80001C9.1 3.30001 10.4 1.10001 16 2.30001Z" fill="#F5B43C"/>
<path d="M9.49998 124C12.2 120.3 15.3 119.7 19.3 122.1C31 129 43 135.5 54.7 142.5C61.3 146.4 61.1 150.4 54.2 154.6C41.6 162.1 28.8 169.3 16.1 176.7C10.5 177.9 9.19998 175.8 9.39998 170.1C9.79998 154.7 9.49998 139.4 9.49998 124Z" fill="#D3196A"/>
<path d="M220.6 96.7C220.6 84.4 220.3 72.1 220.7 59.8C220.9 54.3 218.9 52.8 213.7 53C205.5 53.4 197.3 53 189.1 53.1C185.1 53.2 183.1 53 184.8 47.8C189.5 33 189.2 32.9 204.6 32.9C224.8 32.9 245.1 32.8 265.3 33C269.3 33 274.446 32.8529 274.7 38.8C274.4 48.4 273.584 51.808 265.138 52.308C260.538 52.608 257.638 52.5311 251.1 53C245.5 52.4 244.4 54.8 244.4 60C244.6 83.8 244.2 107.6 244.7 131.4C244.8 138.4 243.3 140.8 235.8 140.5C220.6 139.9 220.6 140.3 220.6 125.4V96.7Z" fill="#5C5B60"/>
<path d="M371.8 32.2C371.8 39.7 372.1 46.8 371.7 53.8C371.5 58.6 373.3 60.3 377.8 59.7C385.139 59.9291 389.405 59.0326 390.1 61.2C391.3 65.8 391.3 71.2 390 75.7C389.196 77.9298 384.1 77.7 381.1 77.4C373.7 76.6 370.8 78.9 371.5 86.7C372.2 94.8 371.6 103.1 371.7 111.3C371.8 121.7 372.7 122.6 382.8 122.8C386.6 122.9 390.53 121.596 390.7 128.3C387.7 140.997 397.096 141.142 379.6 141.1C353.2 141.7 348.9 135.4 349.2 113.2C349.3 103.6 349.2 94 349.5 84.5C349.7 79.5 348.6 76.5 342.8 77.5C334.2 77.5298 336.4 72.5 336.3 68C336.1 63.5 335 58.1 342.8 59.3C347.3 60 349.7 58.9 349.7 53.3C349.9 37.2 350.2 37.983 366 33.983C367.7 33.883 369.3 32.8 371.8 32.2Z" fill="#5C5B60"/>
<path d="M594.9 79C594.9 63.9 595 48.9 594.8 33.8C594.8 29.3 595.6 28.1 600.4 29.8C617.7 35.8 617.7 35.7 617.7 53.9C617.7 73.9 617.9 93.9 617.6 113.9C617.5 119.9 618.8 123.5 625.7 122.4C630.2 121.7 631.031 123.685 630.9 128.1C629.385 133.784 634.8 139 626.3 140.5C625.8 140.6 625.2 140.5 624.7 140.6C598.8 142.9 594.8 139.3 594.8 113.5C594.9 102 594.9 90.5 594.9 79Z" fill="#BFCD30"/>
<path d="M512.9 122.4V140.4C506.1 140.7 499.3 141.4 492.4 140.5C484.4 139.4 479.7 134.9 479.7 127C479.4 95.6 479.6 64.1 479.5 32.7C479.5 28.9 480.6 28.1 484.3 29.2C502.1 34.2 502.2 34 502.2 52.5V111.5C502.2 122.3 502.2 122.3 512.9 122.4Z" fill="#5C5B60"/>
<path d="M60.8 58C60.8 51.2 60.5 44.3 60.9 37.5C61.3 30.7 64.7 28.8 70.7 32.1C82.6 38.7 94.5 45.5 106.2 52.5C112.7 56.4 112.6 60.1 106.2 64C94.5 71 82.7 77.8 70.8 84.4C64.5 87.9 61.1 85.8 60.8 78.4C60.5 71.6 60.7 64.7 60.7 57.9C60.7 58 60.8 58 60.8 58Z" fill="#37B5DF"/>
<path d="M116.3 89.4C116.3 82.6 116.1 75.7 116.4 68.9C116.7 61.8 119.8 59.9 125.9 63.2C138 69.9 150 76.8 161.9 84C167.9 87.6 167.8 91.2 161.7 94.9C149.8 102.1 137.7 109 125.6 115.7C119.5 119 116.6 117.1 116.3 109.8C116.1 103 116.3 96.2 116.3 89.4Z" fill="#DB1E35"/>
<path d="M61.8 117.7C61.8 111.2 61.8 104.6 61.8 98.1C61.8 91.7 64.9 89.2 70.6 92.2C83.3 99.1 95.8 106.3 108.2 113.7C112.9 116.5 112.5 120.7 107.9 123.5C95.5 131 83.1 138.3 70.4 145.2C65.3 148 61.9 145.9 61.8 139.8C61.8 132.5 61.8 125.1 61.8 117.7Z" fill="#BFCD30"/>
<path d="M552 58.1004C574.6 56.2005 588.8 68.0001 591.3 91.2C592.2 99.0999 591.499 107 589.9 114.8C584.8 139.8 554.8 150.9 534.7 131.8C540.4 153 531.4 165 514.3 172.9C512.4 161.9 513.955 150.861 513.492 138.777C513.706 128.449 513.845 128.4 513.869 123.508C513.478 104.285 513 86.9 513.9 69.2C514.1 65.9001 510.8 60.5005 517.8 59.6004C529 58.0004 532 59.1999 534.5 67.4998C539.8 63.1999 544.8 58.7004 552 58.1004ZM568.2 91.7997C567.3 80.2999 560.9 74.7995 550 75.5995C539 76.2995 535.7 80.3002 535.7 92.9002V98.5995C535.8 102.399 535.6 106.2 535.7 110C536.3 119.5 540.9 124.2 549.8 125C558 125.8 564.499 121 566.9 112.9C569 106 568.8 98.7997 568.2 91.7997Z" fill="#37B5DF"/>
<path d="M641.4 64.3996C654.5 58.5996 668.2 56.9004 682.3 58.2004C697.4 59.5005 705.5 68.8 706.4 86.0998C706.8 91.2998 706.6 96.5004 706.6 101.7C706.6 106.6 706.5 111.6 706.6 116.5C706.6 118.4 707.2 120.3 707.3 122.2C707.301 125.7 714.1 126 711.7 129.6C708.9 133.8 704.8 137.4 700.7 140.6C696.7 143.7 692.7 140.5 690.8 137.8C687 132.4 684.2 134 679.7 136.6C670.7 141.9 660.9 143.7 650.5 140.8C641.201 138.2 635.4 132.5 633.8 122.7C632.1 112.5 634.5 103.8 643.1 97.3C652.8 89.9 664.5 89.8002 675.8 88.0002C679 87.5004 684.299 90.1998 683.7 83.2004C683.2 77.6005 680.3 74.9003 674.8 74.5002C665.3 73.8002 656.1 75.3998 647.8 79.8996C638.3 84.9996 639.508 77.0225 637.6 72.3C636.291 66.3544 637.5 66.0996 641.4 64.3996ZM681 101.3C673.401 100.3 665.7 101.3 659.3 106.4C655 109.7 655 114.4 655.7 119.1C656.3 123 658.9 125.1 662.7 126.2C674 129.4 683.308 121.923 684 110.2C684.085 105.248 683.755 102.277 681 101.3Z" fill="#F5B43C"/>
<path d="M295.6 58.0996C322.399 58.0996 336.9 72.7998 337 100.1C337 126.7 321.8 141.9 295.2 141.9C269 141.8 254.3 126.6 254.3 99.2998C254.3 72.9 269.2 58.0998 295.6 58.0996ZM295.5 75.2002C284.7 75.4002 278.5 81.0999 277.5 92.2998C277 97.8998 277.1 103.8 277.8 109.4C279.1 119.5 284.8 124.2 294.8 124.4C305.6 124.5 311.3 120.2 313.3 110C313.9 106.8 313.9 103.5 314.1 100.8C313.9 97.5 313.9 94.8001 313.6 92.2002C312.3 80.9002 306 75.0002 295.5 75.2002Z" fill="#5C5B60"/>
<path d="M406.5 64.5002C419.899 58.6002 433.8 56.7004 448.2 58.2003C462.3 59.6003 470.5 67.9003 471.6 82.2003C472 88.5 471.6 94.8997 471.6 99.3996C472.4 107.9 469 116.4 473.1 121.2C480.3 129.7 474 132.4 469.6 137.4C464.2 143.6 459.3 141.9 455.4 136.9C452.1 132.8 450.1 133.5 446.3 135.8C437.1 141.5 427.1 143.6 416.4 140.9C407 138.5 400.9 132.8 399.3 123.1C397.4 112 400.1 102.5 410.2 96.0002C419.8 89.8002 430.9 89.5001 441.7 88.0002C444.6 87.6002 449.399 90 449 83.5002C448.7 78.4002 446.7 75.0998 441.4 74.5998C431.6 73.5998 422.1 75.2 413.6 79.8C404.3 84.8999 405.069 78.2531 403.2 72.5002C402.153 65.8859 402.3 66.2999 406.5 64.5002ZM446.3 101C439.5 100.7 432.6 101.3 426.5 104.9C422.1 107.5 420.2 111.5 420.5 116.7C420.7 121 422.5 124.1 426.4 125.8C436.8 130.4 449.8 122.3 449.8 111.1C449.8 101.6 449.9 101.2 446.3 101Z" fill="#5C5B60"/>
</svg>
